<svg id="Layer_1" data-name="Layer 1" xmlns="http://www.w3.org/2000/svg" viewBox="0 0 24 24"><defs><style>.cls-1{fill:#fcc836;}</style></defs><title>new-i</title><path class="cls-1" d="M.06,24l1.69-6.16a11.89,11.89,0,1,1,4.62,4.51Zm6.6-3.81a9.86,9.86,0,1,0-2.74-2.67l-1,3.65ZM18,14.73c-.07-.12-.27-.2-.57-.35s-1.76-.87-2-1-.47-.15-.67.15-.77,1-.94,1.16-.35.22-.64.07a8.11,8.11,0,0,1-2.39-1.48,9,9,0,0,1-1.65-2.06c-.17-.3,0-.46.13-.61s.3-.35.45-.52a2,2,0,0,0,.3-.49.55.55,0,0,0,0-.52C9.92,9,9.33,7.52,9.08,6.92s-.49-.5-.67-.51H7.84A1.09,1.09,0,0,0,7,6.77,3.33,3.33,0,0,0,6,9.25a5.78,5.78,0,0,0,1.21,3.07,13.25,13.25,0,0,0,5.08,4.49,17.19,17.19,0,0,0,1.69.63,4.08,4.08,0,0,0,1.87.12,3.06,3.06,0,0,0,2-1.41A2.48,2.48,0,0,0,18,14.73Z"/></svg>